<?xml version="1.0" encoding="UTF-8"?>
<svg width="390px" height="49px" viewBox="0 0 390 49" version="1.1" xmlns="http://www.w3.org/2000/svg" xmlns:xlink="http://www.w3.org/1999/xlink">
    <!-- Generator: Sketch 42 (36781) - http://www.bohemiancoding.com/sketch -->
    <title>notakey-white-nobg</title>
    <desc>Created with Sketch.</desc>
    <defs></defs>
    <g id="Page-1" stroke="none" stroke-width="1" fill="none" fill-rule="evenodd">
        <g id="Artboard-2" transform="translate(-23.000000, -20.000000)" fill="#FFFFFF">
            <g id="notakey-white-nobg" transform="translate(23.000000, 20.000000)">
                <g id="Page-1">
                    <g>
                        <g id="Outline">
                            <g id="Group-2">
                                <g id="notakey-white-nobg" fill-rule="nonzero">
                                    <g id="Page-1">
                                        <g id="notakey---light-on-dark">
                                            <g id="Group">
                                                <path d="M27.5043243,48.3114024 C27.8221622,48.6613687 28.2364865,48.8200578 28.7146622,48.8200578 L45.7530405,48.8200578 C46.1985811,48.8200578 46.6129054,48.6613687 46.9321622,48.3114024 C47.2826351,47.9926072 47.4415541,47.5802988 47.4415541,47.1028145 L47.4415541,36.8942843 C47.4415541,36.4168 47.2826351,36.0030747 46.9321622,35.6856964 C46.6129054,35.3357301 46.2312162,35.177041 45.7530405,35.177041 L45.1797973,35.177041 L45.1797973,31.7737253 C45.1797973,29.5789976 44.3837838,27.7342361 42.822973,26.1770988 C41.2621622,24.6185446 39.4161486,23.8236819 37.2182432,23.8236819 C35.0203378,23.8236819 33.1729054,24.6185446 31.6120946,26.1770988 C30.0512838,27.7342361 29.2552703,29.5789976 29.2552703,31.7737253 L29.2552703,35.177041 L28.682027,35.177041 C28.2052703,35.177041 27.8221622,35.3357301 27.5043243,35.6856964 C27.1538514,36.0030747 26.9949324,36.4168 26.9949324,36.8942843 L26.9949324,47.1028145 C26.9949324,47.5802988 27.1538514,47.9926072 27.5043243,48.3114024 L27.5043243,48.3114024 Z M32.6635135,31.7737253 C32.6635135,30.5013783 33.1090541,29.4528964 34.0015541,28.5616867 C34.8926351,27.671894 35.9752703,27.2255807 37.2182432,27.2255807 C38.4597973,27.2255807 39.5424324,27.671894 40.4349324,28.5616867 C41.3260135,29.4528964 41.7715541,30.5013783 41.7715541,31.7737253 L41.7715541,35.177041 L32.6635135,35.177041 L32.6635135,31.7737253 L32.6635135,31.7737253 Z" id="Shadow-lock" fill-opacity="0.2"></path>
                                                <path d="M27.5043265,46.5403181 C27.8221643,46.8902843 28.2364887,47.0489735 28.7146643,47.0489735 L45.7530427,47.0489735 C46.1985833,47.0489735 46.6129076,46.8902843 46.9321643,46.5403181 C47.2826373,46.2215229 47.4415562,45.8092145 47.4415562,45.3317301 L47.4415562,35.1232 C47.4415562,34.6457157 47.2826373,34.2319904 46.9321643,33.914612 C46.6129076,33.5646458 46.2312184,33.4059566 45.7530427,33.4059566 L45.1797995,33.4059566 L45.1797995,30.002641 C45.1797995,27.8079133 44.383786,25.9631518 42.8229752,24.4060145 C41.2621643,22.8474602 39.4161508,22.0525976 37.2182454,22.0525976 C35.02034,22.0525976 33.1729076,22.8474602 31.6120968,24.4060145 C30.051286,25.9631518 29.2552725,27.8079133 29.2552725,30.002641 L29.2552725,33.4059566 L28.6820292,33.4059566 C28.2052725,33.4059566 27.8221643,33.5646458 27.5043265,33.914612 C27.1538535,34.2319904 26.9949346,34.6457157 26.9949346,35.1232 L26.9949346,45.3317301 C26.9949346,45.8092145 27.1538535,46.2215229 27.5043265,46.5403181 L27.5043265,46.5403181 Z M32.6635157,30.002641 C32.6635157,28.730294 33.1090562,27.681812 34.0015562,26.7906024 C34.8926373,25.9008096 35.9752725,25.4544964 37.2182454,25.4544964 C38.4597995,25.4544964 39.5424346,25.9008096 40.4349346,26.7906024 C41.3260157,27.681812 41.7715562,28.730294 41.7715562,30.002641 L41.7715562,33.4059566 L32.6635157,33.4059566 L32.6635157,30.002641 L32.6635157,30.002641 Z" id="Dark-lock"></path>
                                                <path d="M25.394584,32.1746988 L17.080606,32.1746988 L17.080606,19.5142131 C17.080606,18.222791 16.8689096,17.0966571 16.4455104,16.1357775 C16.0221113,15.1748979 15.0944962,14.6944654 13.6626372,14.6944654 C12.9851986,14.6944654 12.3885996,14.8212996 11.8728225,15.0749717 C11.3570454,15.328644 10.8951624,15.6553381 10.4871595,16.055064 C10.0791567,16.4547899 9.73659342,16.839136 9.45945946,17.2081137 C9.1823255,17.5770914 8.89749757,17.9691244 8.60496727,18.3842244 L8.60496727,32.1746988 L0.290989231,32.1746988 L0.290989231,8.69860693 L8.60496727,8.69860693 L8.60496727,12.065512 C9.91365552,10.6664714 11.2261732,9.68638895 12.5425596,9.12523529 C13.8589461,8.56408168 15.3254248,8.28350904 16.9420397,8.28350904 C22.5770975,8.28350904 25.394584,11.6503805 25.394584,18.3842244 L25.394584,32.1746988 Z M53.3849768,20.4135919 C53.3849768,22.7504509 52.8769054,24.8336066 51.8607475,26.6631212 C50.8445895,28.4926359 49.3242245,29.9377771 47.2996067,30.9985881 C45.274989,32.0593991 42.8077637,32.5897967 39.8978568,32.5897967 C36.98795,32.5897967 34.5207247,32.0593991 32.496107,30.9985881 C30.4714892,29.9377771 28.9549732,28.4926359 27.9465134,26.6631212 C26.9380536,24.8336066 26.4338313,22.7504509 26.4338313,20.4135919 C26.4338313,18.6455735 26.7148102,17.039007 27.2767763,15.5938441 C27.8387424,14.1486813 28.6932261,12.8688089 29.8402528,11.7541886 C30.9872796,10.6395684 32.3998719,9.78247666 34.0780722,9.1828878 C35.7562725,8.58329895 37.6961812,8.28350904 39.8978568,8.28350904 C42.1149288,8.28350904 44.0740827,8.58714244 45.7753774,9.19441833 C47.4766722,9.80169416 48.8854155,10.6510989 50.0016496,11.7426581 C51.1178837,12.8342173 51.9608203,14.1102462 52.5304846,15.5707831 C53.1001489,17.0313201 53.3849768,18.6455735 53.3849768,20.4135919 L53.3849768,20.4135919 Z M44.6322054,20.4135919 C44.6322054,18.5533291 44.2280578,17.0966575 43.4197503,16.0435335 C42.6114428,14.9904095 41.4374901,14.4638554 39.8978568,14.4638554 C38.3736199,14.4638554 37.2073652,14.9904095 36.3990577,16.0435335 C35.5907503,17.0966575 35.1866026,18.5533291 35.1866026,20.4135919 C35.1866026,22.2584806 35.5945993,23.7189956 36.4106049,24.7951807 C37.2266105,25.8713658 38.3890162,26.4094503 39.8978568,26.4094503 C41.4374901,26.4094503 42.6114428,25.8752093 43.4197503,24.8067112 C44.2280578,23.7382132 44.6322054,22.2738547 44.6322054,20.4135919 L44.6322054,20.4135919 Z M73.2923353,30.8141002 C72.4301405,31.2292001 71.240792,31.62892 69.7242532,32.0132718 C68.2077144,32.3976236 66.7566316,32.5897967 65.3709615,32.5897967 C59.3817887,32.5897967 56.3872466,29.6687667 56.3872466,23.826619 L56.3872466,14.4638554 L52.6228621,14.4638554 L52.6228621,13.0110128 L63.7774493,1.66500377 L64.7243187,1.66500377 L64.7243187,8.69860693 L72.6687867,8.69860693 L72.6687867,14.4638554 L64.7243187,14.4638554 L64.7243187,21.9817395 C64.7243187,22.8580616 64.7782052,23.5652583 64.8859797,24.1033509 C64.9937543,24.6414435 65.2978269,25.0911283 65.798208,25.452419 C66.2985886,25.8137098 67.0568465,25.9943524 68.0730046,25.9943524 C69.3970895,25.9943524 71.1368485,25.4408941 73.2923353,24.3339608 L73.2923353,30.8141002 Z M98.3728357,30.9985881 C97.1565254,31.4751844 96.0326098,31.8595304 95.0010557,32.1516378 C93.9695017,32.4437452 92.730115,32.5897967 91.2828603,32.5897967 C89.9125867,32.5897967 88.9580279,32.3476587 88.4191568,31.8633753 C87.8802851,31.3790921 87.495382,30.7910426 87.264437,30.0992093 C86.3714498,30.8217908 85.3784017,31.4175271 84.2852618,31.8864364 C83.192122,32.3553456 81.760285,32.5897967 79.9897065,32.5897967 C78.2807139,32.5897967 76.8989133,32.2938502 75.8442645,31.7019484 C74.7896158,31.1100466 74.0506032,30.3644153 73.6272037,29.465032 C73.2038048,28.5656487 72.9921086,27.6393747 72.9921086,26.6861822 C72.9921086,25.2410194 73.3577658,24.0457032 74.0890914,23.1001976 C74.8204176,22.1546922 75.8019187,21.3821566 77.0336254,20.7825678 C78.2653322,20.1829789 79.8973189,19.5603383 81.9296347,18.9146273 C83.0843598,18.5456495 83.9580887,18.2650769 84.5508474,18.0729009 C85.1436061,17.8807251 85.5862437,17.7308301 85.878774,17.6232116 C86.1713048,17.5155931 86.4792268,17.3772285 86.8025493,17.2081137 C86.8025493,16.0704323 86.5716079,15.1787495 86.1097184,14.5330384 C85.6478284,13.8873273 84.6470814,13.5644767 83.107448,13.5644767 C81.2906807,13.5644767 79.6048076,13.9641966 78.0497783,14.7636483 C76.494749,15.5631001 75.070609,16.5931476 73.7773171,17.8538215 L73.7773171,11.4889872 C74.8088717,10.7510317 75.9250891,10.1476084 77.126003,9.67869914 C78.3269168,9.20978992 79.5816993,8.86003507 80.8903872,8.62942395 C82.1990756,8.39881283 83.5231404,8.28350904 84.8626211,8.28350904 C88.2652111,8.28350904 90.8248126,8.94074078 92.5415041,10.2552241 C94.2581949,11.5697073 95.1165274,13.3799772 95.1165274,15.6860881 L95.1165274,24.7490587 C95.1165274,25.6100068 95.1973573,26.2518647 95.3590188,26.6746518 C95.5206804,27.0974388 95.8170553,27.3088291 96.2481524,27.3088291 C96.7716277,27.3088291 97.4798486,27.0859083 98.3728357,26.6400602 L98.3728357,30.9985881 Z M86.8025493,26.5016943 L86.8025493,20.9439947 C84.8318193,21.7434465 83.3922835,22.4621737 82.4838999,23.1001976 C81.5755163,23.7382217 81.1213316,24.6030003 81.1213316,25.6945595 C81.1213316,26.4786372 81.3484236,27.0782171 81.8026155,27.493317 C82.2568073,27.908417 82.7841236,28.1159639 83.3845806,28.1159639 C83.9542452,28.1159639 84.5200521,27.958382 85.0820179,27.6432135 C85.6439843,27.328045 86.2174889,26.9475424 86.8025493,26.5016943 L86.8025493,26.5016943 Z M126.640361,32.1746988 L116.086228,32.1746988 L107.056324,21.0362387 L107.056324,32.1746988 L98.6499683,32.1746988 L98.6499683,0.212161145 L107.056324,0.212161145 L107.056324,18.9607492 L115.301019,8.69860693 L125.277793,8.69860693 L116.086228,19.6525791 L126.640361,32.1746988 Z M148.418364,22.4429593 L131.859692,22.4429593 C132.183015,23.8727481 132.975914,25.0411601 134.238414,25.9482304 C135.500913,26.8553007 136.93275,27.3088291 138.533968,27.3088291 C141.336101,27.3088291 144.430717,26.5247631 147.817911,24.9566077 L147.817911,30.0992093 C146.601601,30.7295463 145.127424,31.302222 143.395336,31.8172534 C141.663249,32.3322848 139.457757,32.5897967 136.778795,32.5897967 C133.884285,32.5897967 131.420909,32.0517122 129.388592,30.9755271 C127.356277,29.899342 125.835911,28.438827 124.827452,26.5939383 C123.818992,24.7490495 123.31477,22.658207 123.31477,20.3213479 C123.31477,18.015237 123.818992,15.9512987 124.827452,14.129471 C125.835911,12.3076434 127.356277,10.877876 129.388592,9.84012616 C131.420909,8.80237623 133.884285,8.28350904 136.778795,8.28350904 C138.68794,8.28350904 140.531624,8.69475931 142.3099,9.51727224 C144.088177,10.3397851 145.550806,11.6849963 146.697833,13.5529461 C147.84486,15.420896 148.418364,17.8307458 148.418364,20.7825678 L148.418364,22.4429593 Z M140.612463,18.3381024 C140.612463,16.8314433 140.239107,15.6284401 139.492385,14.7290569 C138.745663,13.8296736 137.671785,13.3799887 136.270719,13.3799887 C134.885049,13.3799887 133.764982,13.8373605 132.910486,14.7521178 C132.05599,15.6668752 131.628748,16.8621914 131.628748,18.3381024 L140.612463,18.3381024 Z M174.745961,8.69860693 L158.764648,42.851939 L150.358293,42.851939 L156.82472,29.1075866 L147.517684,8.69860693 L156.45521,8.69860693 L161.235747,20.3674699 L166.662928,8.69860693 L174.745961,8.69860693 Z" id="notakey"></path>
                                                <path d="M25.394584,33.9457831 L17.080606,33.9457831 L17.080606,21.2852974 C17.080606,19.9938753 16.8689096,18.8677414 16.4455104,17.9068618 C16.0221113,16.9459822 15.0944962,16.4655497 13.6626372,16.4655497 C12.9851986,16.4655497 12.3885996,16.5923839 11.8728225,16.8460561 C11.3570454,17.0997283 10.8951624,17.4264225 10.4871595,17.8261483 C10.0791567,18.2258742 9.73659342,18.6102203 9.45945946,18.979198 C9.1823255,19.3481758 8.89749757,19.7402088 8.60496727,20.1553087 L8.60496727,33.9457831 L0.290989231,33.9457831 L0.290989231,10.4696913 L8.60496727,10.4696913 L8.60496727,13.8365964 C9.91365552,12.4375558 11.2261732,11.4574733 12.5425596,10.8963196 C13.8589461,10.335166 15.3254248,10.0545934 16.9420397,10.0545934 C22.5770975,10.0545934 25.394584,13.4214648 25.394584,20.1553087 L25.394584,33.9457831 Z M53.3849768,22.1846762 C53.3849768,24.5215353 52.8769054,26.6046909 51.8607475,28.4342056 C50.8445895,30.2637202 49.3242245,31.7088614 47.2996067,32.7696724 C45.274989,33.8304835 42.8077637,34.360881 39.8978568,34.360881 C36.98795,34.360881 34.5207247,33.8304835 32.496107,32.7696724 C30.4714892,31.7088614 28.9549732,30.2637202 27.9465134,28.4342056 C26.9380536,26.6046909 26.4338313,24.5215353 26.4338313,22.1846762 C26.4338313,20.4166579 26.7148102,18.8100913 27.2767763,17.3649285 C27.8387424,15.9197656 28.6932261,14.6398932 29.8402528,13.5252729 C30.9872796,12.4106527 32.3998719,11.553561 34.0780722,10.9539721 C35.7562725,10.3543833 37.6961812,10.0545934 39.8978568,10.0545934 C42.1149288,10.0545934 44.0740827,10.3582268 45.7753774,10.9655027 C47.4766722,11.5727785 48.8854155,12.4221833 50.0016496,13.5137425 C51.1178837,14.6053017 51.9608203,15.8813306 52.5304846,17.3418675 C53.1001489,18.8024044 53.3849768,20.4166579 53.3849768,22.1846762 L53.3849768,22.1846762 Z M44.6322054,22.1846762 C44.6322054,20.3244134 44.2280578,18.8677418 43.4197503,17.8146178 C42.6114428,16.7614939 41.4374901,16.2349398 39.8978568,16.2349398 C38.3736199,16.2349398 37.2073652,16.7614939 36.3990577,17.8146178 C35.5907503,18.8677418 35.1866026,20.3244134 35.1866026,22.1846762 C35.1866026,24.0295649 35.5945993,25.4900799 36.4106049,26.5662651 C37.2266105,27.6424502 38.3890162,28.1805346 39.8978568,28.1805346 C41.4374901,28.1805346 42.6114428,27.6462936 43.4197503,26.5777955 C44.2280578,25.5092975 44.6322054,24.044939 44.6322054,22.1846762 L44.6322054,22.1846762 Z M73.2923353,32.5851845 C72.4301405,33.0002844 71.240792,33.4000044 69.7242532,33.7843562 C68.2077144,34.168708 66.7566316,34.360881 65.3709615,34.360881 C59.3817887,34.360881 56.3872466,31.439851 56.3872466,25.5977033 L56.3872466,16.2349398 L52.6228621,16.2349398 L52.6228621,14.7820971 L63.7774493,3.4360881 L64.7243187,3.4360881 L64.7243187,10.4696913 L72.6687867,10.4696913 L72.6687867,16.2349398 L64.7243187,16.2349398 L64.7243187,23.7528238 C64.7243187,24.6291459 64.7782052,25.3363427 64.8859797,25.8744352 C64.9937543,26.4125278 65.2978269,26.8622127 65.798208,27.2235034 C66.2985886,27.5847941 67.0568465,27.7654367 68.0730046,27.7654367 C69.3970895,27.7654367 71.1368485,27.2119784 73.2923353,26.1050452 L73.2923353,32.5851845 Z M98.3728357,32.7696724 C97.1565254,33.2462687 96.0326098,33.6306148 95.0010557,33.9227221 C93.9695017,34.2148295 92.730115,34.360881 91.2828603,34.360881 C89.9125867,34.360881 88.9580279,34.118743 88.4191568,33.6344597 C87.8802851,33.1501764 87.495382,32.562127 87.264437,31.8702937 C86.3714498,32.5928751 85.3784017,33.1886115 84.2852618,33.6575207 C83.192122,34.12643 81.760285,34.360881 79.9897065,34.360881 C78.2807139,34.360881 76.8989133,34.0649345 75.8442645,33.4730328 C74.7896158,32.881131 74.0506032,32.1354996 73.6272037,31.2361163 C73.2038048,30.3367331 72.9921086,29.4104591 72.9921086,28.4572666 C72.9921086,27.0121037 73.3577658,25.8167875 74.0890914,24.871282 C74.8204176,23.9257765 75.8019187,23.153241 77.0336254,22.5536521 C78.2653322,21.9540633 79.8973189,21.3314227 81.9296347,20.6857116 C83.0843598,20.3167339 83.9580887,20.0361612 84.5508474,19.8439853 C85.1436061,19.6518094 85.5862437,19.5019145 85.878774,19.3942959 C86.1713048,19.2866774 86.4792268,19.1483129 86.8025493,18.979198 C86.8025493,17.8415166 86.5716079,16.9498338 86.1097184,16.3041227 C85.6478284,15.6584117 84.6470814,15.335561 83.107448,15.335561 C81.2906807,15.335561 79.6048076,15.7352809 78.0497783,16.5347327 C76.494749,17.3341844 75.070609,18.3642319 73.7773171,19.6249059 L73.7773171,13.2600715 C74.8088717,12.5221161 75.9250891,11.9186928 77.126003,11.4497835 C78.3269168,10.9808743 79.5816993,10.6311194 80.8903872,10.4005083 C82.1990756,10.1698972 83.5231404,10.0545934 84.8626211,10.0545934 C88.2652111,10.0545934 90.8248126,10.7118251 92.5415041,12.0263084 C94.2581949,13.3407916 95.1165274,15.1510615 95.1165274,17.4571724 L95.1165274,26.5201431 C95.1165274,27.3810911 95.1973573,28.022949 95.3590188,28.4457361 C95.5206804,28.8685231 95.8170553,29.0799134 96.2481524,29.0799134 C96.7716277,29.0799134 97.4798486,28.8569927 98.3728357,28.4111446 L98.3728357,32.7696724 Z M86.8025493,28.2727786 L86.8025493,22.7150791 C84.8318193,23.5145308 83.3922835,24.233258 82.4838999,24.871282 C81.5755163,25.509306 81.1213316,26.3740846 81.1213316,27.4656438 C81.1213316,28.2497215 81.3484236,28.8493014 81.8026155,29.2644014 C82.2568073,29.6795013 82.7841236,29.8870482 83.3845806,29.8870482 C83.9542452,29.8870482 84.5200521,29.7294663 85.0820179,29.4142978 C85.6439843,29.0991293 86.2174889,28.7186267 86.8025493,28.2727786 L86.8025493,28.2727786 Z M126.640361,33.9457831 L116.086228,33.9457831 L107.056324,22.807323 L107.056324,33.9457831 L98.6499683,33.9457831 L98.6499683,1.98324548 L107.056324,1.98324548 L107.056324,20.7318336 L115.301019,10.4696913 L125.277793,10.4696913 L116.086228,21.4236634 L126.640361,33.9457831 Z M148.418364,24.2140437 L131.859692,24.2140437 C132.183015,25.6438324 132.975914,26.8122445 134.238414,27.7193148 C135.500913,28.626385 136.93275,29.0799134 138.533968,29.0799134 C141.336101,29.0799134 144.430717,28.2958475 147.817911,26.727692 L147.817911,31.8702937 C146.601601,32.5006307 145.127424,33.0733063 143.395336,33.5883377 C141.663249,34.1033691 139.457757,34.360881 136.778795,34.360881 C133.884285,34.360881 131.420909,33.8227966 129.388592,32.7466114 C127.356277,31.6704263 125.835911,30.2099113 124.827452,28.3650226 C123.818992,26.5201339 123.31477,24.4292913 123.31477,22.0924322 C123.31477,19.7863213 123.818992,17.722383 124.827452,15.9005554 C125.835911,14.0787277 127.356277,12.6489604 129.388592,11.6112105 C131.420909,10.5734606 133.884285,10.0545934 136.778795,10.0545934 C138.68794,10.0545934 140.531624,10.4658436 142.3099,11.2883566 C144.088177,12.1108695 145.550806,13.4560806 146.697833,15.3240305 C147.84486,17.1919804 148.418364,19.6018301 148.418364,22.5536521 L148.418364,24.2140437 Z M140.612463,20.1091867 C140.612463,18.6025276 140.239107,17.3995245 139.492385,16.5001412 C138.745663,15.6007579 137.671785,15.151073 136.270719,15.151073 C134.885049,15.151073 133.764982,15.6084448 132.910486,16.5232022 C132.05599,17.4379595 131.628748,18.6332758 131.628748,20.1091867 L140.612463,20.1091867 Z M174.745961,10.4696913 L158.764648,44.6230233 L150.358293,44.6230233 L156.82472,30.8786709 L147.517684,10.4696913 L156.45521,10.4696913 L161.235747,22.1385542 L166.662928,10.4696913 L174.745961,10.4696913 Z" id="notakey" fill-opacity="0.202162591"></path>
                                            </g>
                                        </g>
                                    </g>
                                </g>
                                <g id="documentation" transform="translate(185.000000, 1.000000)">
                                    <path d="M15.692,31 L13.996,31 L13.996,28.536 C12.908,30.136 10.924,31.384 8.62,31.384 C4.524,31.384 1.74,28.248 1.74,23.288 C1.74,18.392 4.524,15.16 8.62,15.16 C10.828,15.16 12.78,16.28 13.996,18.04 L13.996,9.656 L15.692,9.656 L15.692,31 Z M8.908,29.88 C11.084,29.88 13.1,28.6 13.996,27.128 L13.996,19.48 C13.1,17.976 11.084,16.664 8.908,16.664 C5.484,16.664 3.5,19.544 3.5,23.288 C3.5,27.032 5.484,29.88 8.908,29.88 Z M27.404,31.384 C22.892,31.384 20.012,27.768 20.012,23.256 C20.012,18.744 22.892,15.16 27.404,15.16 C31.98,15.16 34.86,18.744 34.86,23.256 C34.86,27.768 31.98,31.384 27.404,31.384 Z M27.404,29.88 C31.052,29.88 33.068,26.712 33.068,23.256 C33.068,19.832 31.052,16.664 27.404,16.664 C23.82,16.664 21.772,19.832 21.772,23.256 C21.772,26.712 23.82,29.88 27.404,29.88 Z M45.772,31.384 C48.46,31.384 49.996,30.328 51.244,28.728 L50.092,27.704 C48.972,29.24 47.564,29.88 45.868,29.88 C42.252,29.88 40.044,26.968 40.044,23.256 C40.044,19.544 42.252,16.664 45.868,16.664 C47.564,16.664 48.972,17.272 50.092,18.808 L51.244,17.784 C49.996,16.216 48.46,15.16 45.772,15.16 C41.228,15.16 38.284,18.744 38.284,23.256 C38.284,27.768 41.228,31.384 45.772,31.384 Z M67.052,31 L67.052,15.544 L65.388,15.544 L65.388,27.32 C64.364,28.696 62.348,29.88 60.364,29.88 C58.124,29.88 56.62,29.048 56.62,26.04 L56.62,15.544 L54.956,15.544 L54.956,26.424 C54.956,29.912 56.684,31.384 59.82,31.384 C62.06,31.384 64.14,30.136 65.388,28.728 L65.388,31 L67.052,31 Z M92.3,31 L92.3,19.864 C92.3,16.76 90.924,15.16 88.076,15.16 C85.9,15.16 83.82,16.632 82.956,18.072 C82.572,16.568 81.292,15.16 78.892,15.16 C76.652,15.16 74.54,16.888 73.9,17.88 L73.9,15.544 L72.236,15.544 L72.236,31 L73.9,31 L73.9,19.32 C74.828,17.912 76.684,16.664 78.348,16.664 C80.524,16.664 81.42,18.008 81.42,20.184 L81.42,31 L83.116,31 L83.116,19.288 C83.98,17.88 85.868,16.664 87.532,16.664 C89.708,16.664 90.636,18.008 90.636,20.184 L90.636,31 L92.3,31 Z M104.332,31.384 C99.82,31.384 96.62,28.024 96.62,23.256 C96.62,18.776 99.756,15.16 104.044,15.16 C108.748,15.16 111.34,18.872 111.34,23.352 L111.34,23.8 L98.412,23.8 C98.572,27.16 100.812,29.944 104.46,29.944 C106.412,29.944 108.204,29.208 109.516,27.8 L110.38,28.888 C108.844,30.488 106.892,31.384 104.332,31.384 Z M109.644,22.488 C109.612,19.864 107.884,16.6 104.012,16.6 C100.364,16.6 98.54,19.8 98.412,22.488 L109.644,22.488 Z M127.724,31 L127.724,20.184 C127.724,16.696 125.996,15.16 122.86,15.16 C120.62,15.16 118.412,16.536 117.292,17.88 L117.292,15.544 L115.628,15.544 L115.628,31 L117.292,31 L117.292,19.32 C118.284,17.912 120.332,16.664 122.316,16.664 C124.556,16.664 126.06,17.56 126.06,20.536 L126.06,31 L127.724,31 Z M136.268,31.384 C137.548,31.384 138.284,31 138.892,30.424 L138.252,29.144 C137.9,29.528 137.26,29.88 136.524,29.88 C135.436,29.88 134.924,29.016 134.924,27.768 L134.924,17.016 L138.06,17.016 L138.06,15.544 L134.924,15.544 L134.924,11.32 L133.228,11.32 L133.228,15.544 L130.668,15.544 L130.668,17.016 L133.228,17.016 L133.228,28.024 C133.228,30.136 134.22,31.384 136.268,31.384 Z M153.196,31 L151.532,31 L151.532,29.176 C150.156,30.68 148.428,31.384 146.284,31.384 C143.628,31.384 140.876,29.56 140.876,26.232 C140.876,22.872 143.596,21.112 146.284,21.112 C148.428,21.112 150.188,21.816 151.532,23.32 L151.532,20.184 C151.532,17.88 149.676,16.632 147.404,16.632 C145.452,16.632 143.948,17.304 142.54,18.904 L141.612,17.752 C143.212,16.024 145.004,15.16 147.564,15.16 C150.7,15.16 153.196,16.664 153.196,20.12 L153.196,31 Z M146.86,30.072 C148.716,30.072 150.444,29.368 151.532,27.96 L151.532,24.568 C150.444,23.128 148.716,22.424 146.86,22.424 C144.332,22.424 142.636,24.056 142.636,26.264 C142.636,28.44 144.332,30.072 146.86,30.072 Z M161.74,31.384 C163.02,31.384 163.756,31 164.364,30.424 L163.724,29.144 C163.372,29.528 162.732,29.88 161.996,29.88 C160.908,29.88 160.396,29.016 160.396,27.768 L160.396,17.016 L163.532,17.016 L163.532,15.544 L160.396,15.544 L160.396,11.32 L158.7,11.32 L158.7,15.544 L156.14,15.544 L156.14,17.016 L158.7,17.016 L158.7,28.024 C158.7,30.136 159.692,31.384 161.74,31.384 Z M168.012,13.112 C168.716,13.112 169.292,12.536 169.292,11.832 C169.292,11.128 168.716,10.584 168.012,10.584 C167.34,10.584 166.732,11.128 166.732,11.832 C166.732,12.536 167.34,13.112 168.012,13.112 Z M168.844,31 L168.844,15.544 L167.18,15.544 L167.18,31 L168.844,31 Z M180.556,31.384 C176.044,31.384 173.164,27.768 173.164,23.256 C173.164,18.744 176.044,15.16 180.556,15.16 C185.132,15.16 188.012,18.744 188.012,23.256 C188.012,27.768 185.132,31.384 180.556,31.384 Z M180.556,29.88 C184.204,29.88 186.22,26.712 186.22,23.256 C186.22,19.832 184.204,16.664 180.556,16.664 C176.972,16.664 174.924,19.832 174.924,23.256 C174.924,26.712 176.972,29.88 180.556,29.88 Z M204.396,31 L204.396,20.184 C204.396,16.696 202.668,15.16 199.532,15.16 C197.292,15.16 195.084,16.536 193.964,17.88 L193.964,15.544 L192.3,15.544 L192.3,31 L193.964,31 L193.964,19.32 C194.956,17.912 197.004,16.664 198.988,16.664 C201.228,16.664 202.732,17.56 202.732,20.536 L202.732,31 L204.396,31 Z"></path>
                                </g>
                            </g>
                        </g>
                    </g>
                </g>
            </g>
        </g>
    </g>
</svg>